<mxfile host="app.diagrams.net" modified="2021-03-28T14:24:43.484Z" agent="5.0 (Windows NT 10.0; Win64; x64) AppleWebKit/537.36 (KHTML, like Gecko) Chrome/89.0.4389.90 Safari/537.36" etag="eXcWMoxKR4W_XuOaCFO1" version="14.5.3" type="github">
  <diagram id="eMaG-l3BQiIPrPAUdZ6v" name="Page-1">
    <mxGraphModel dx="1422" dy="762" grid="1" gridSize="10" guides="1" tooltips="1" connect="1" arrows="1" fold="1" page="1" pageScale="1" pageWidth="850" pageHeight="1100" math="0" shadow="0">
      <root>
        <mxCell id="0" />
        <mxCell id="1" parent="0" />
        <mxCell id="X6ToAusCGzRzCE37h3Vb-2" value="" style="rounded=0;whiteSpace=wrap;html=1;fillColor=#cce5ff;strokeColor=#36393d;" parent="1" vertex="1">
          <mxGeometry x="180" y="140" width="500" height="680" as="geometry" />
        </mxCell>
        <mxCell id="X6ToAusCGzRzCE37h3Vb-3" value="&lt;b&gt;&lt;font style=&quot;font-size: 25px&quot;&gt;Snakebot&lt;/font&gt;&lt;/b&gt;" style="text;html=1;strokeColor=none;fillColor=none;align=center;verticalAlign=middle;whiteSpace=wrap;rounded=0;" parent="1" vertex="1">
          <mxGeometry x="380" y="160" width="100" height="20" as="geometry" />
        </mxCell>
        <mxCell id="X6ToAusCGzRzCE37h3Vb-4" value="&lt;b&gt;&lt;font style=&quot;font-size: 15px&quot;&gt;Utilisateur&lt;/font&gt;&lt;/b&gt;" style="shape=umlActor;verticalLabelPosition=bottom;verticalAlign=top;html=1;outlineConnect=0;fillColor=#cce5ff;strokeColor=#36393d;" parent="1" vertex="1">
          <mxGeometry x="50" y="280" width="40" height="80" as="geometry" />
        </mxCell>
        <mxCell id="X6ToAusCGzRzCE37h3Vb-5" value="&lt;font style=&quot;font-size: 15px&quot;&gt;&lt;b&gt;Informer&lt;/b&gt;&lt;/font&gt;" style="ellipse;whiteSpace=wrap;html=1;" parent="1" vertex="1">
          <mxGeometry x="260" y="480" width="140" height="70" as="geometry" />
        </mxCell>
        <mxCell id="X6ToAusCGzRzCE37h3Vb-6" value="" style="endArrow=none;html=1;entryX=0.5;entryY=0.5;entryDx=0;entryDy=0;entryPerimeter=0;exitX=0;exitY=0.5;exitDx=0;exitDy=0;" parent="1" source="X6ToAusCGzRzCE37h3Vb-5" target="X6ToAusCGzRzCE37h3Vb-4" edge="1">
          <mxGeometry width="50" height="50" relative="1" as="geometry">
            <mxPoint x="400" y="500" as="sourcePoint" />
            <mxPoint x="450" y="450" as="targetPoint" />
          </mxGeometry>
        </mxCell>
        <mxCell id="X6ToAusCGzRzCE37h3Vb-7" value="&lt;font style=&quot;font-size: 15px&quot;&gt;&lt;b&gt;Piloter&lt;/b&gt;&lt;/font&gt;" style="ellipse;whiteSpace=wrap;html=1;" parent="1" vertex="1">
          <mxGeometry x="360" y="270" width="140" height="70" as="geometry" />
        </mxCell>
        <mxCell id="X6ToAusCGzRzCE37h3Vb-8" value="&lt;b&gt;&lt;font style=&quot;font-size: 14px&quot;&gt;Caméra live, GPS localisation, audio&lt;/font&gt;&lt;/b&gt;" style="whiteSpace=wrap;html=1;aspect=fixed;fillColor=#cdeb8b;strokeColor=#36393d;" parent="1" vertex="1">
          <mxGeometry x="20" y="550" width="140" height="140" as="geometry" />
        </mxCell>
        <mxCell id="X6ToAusCGzRzCE37h3Vb-9" value="&lt;font style=&quot;font-size: 15px&quot;&gt;&lt;b&gt;Chercher&lt;/b&gt;&lt;/font&gt;" style="ellipse;whiteSpace=wrap;html=1;" parent="1" vertex="1">
          <mxGeometry x="470" y="445" width="140" height="70" as="geometry" />
        </mxCell>
        <mxCell id="X6ToAusCGzRzCE37h3Vb-10" value="&lt;font style=&quot;font-size: 15px&quot;&gt;&lt;b&gt;Détecter&lt;/b&gt;&lt;/font&gt;" style="ellipse;whiteSpace=wrap;html=1;" parent="1" vertex="1">
          <mxGeometry x="470" y="520" width="140" height="70" as="geometry" />
        </mxCell>
        <mxCell id="X6ToAusCGzRzCE37h3Vb-11" value="&lt;b&gt;&lt;font style=&quot;font-size: 15px&quot;&gt;Obstacles&lt;/font&gt;&lt;/b&gt;" style="shape=umlActor;verticalLabelPosition=bottom;verticalAlign=top;html=1;outlineConnect=0;fillColor=#cce5ff;strokeColor=#36393d;" parent="1" vertex="1">
          <mxGeometry x="750" y="480" width="40" height="80" as="geometry" />
        </mxCell>
        <mxCell id="X6ToAusCGzRzCE37h3Vb-14" value="" style="endArrow=classic;html=1;entryX=0;entryY=0.3333333333333333;entryDx=0;entryDy=0;entryPerimeter=0;exitX=1;exitY=0.5;exitDx=0;exitDy=0;" parent="1" source="X6ToAusCGzRzCE37h3Vb-9" target="X6ToAusCGzRzCE37h3Vb-11" edge="1">
          <mxGeometry width="50" height="50" relative="1" as="geometry">
            <mxPoint x="400" y="490" as="sourcePoint" />
            <mxPoint x="450" y="440" as="targetPoint" />
          </mxGeometry>
        </mxCell>
        <mxCell id="X6ToAusCGzRzCE37h3Vb-15" value="" style="endArrow=classic;html=1;exitX=0.5;exitY=0.5;exitDx=0;exitDy=0;exitPerimeter=0;entryX=1;entryY=0.5;entryDx=0;entryDy=0;" parent="1" source="X6ToAusCGzRzCE37h3Vb-11" target="X6ToAusCGzRzCE37h3Vb-10" edge="1">
          <mxGeometry width="50" height="50" relative="1" as="geometry">
            <mxPoint x="400" y="490" as="sourcePoint" />
            <mxPoint x="450" y="440" as="targetPoint" />
          </mxGeometry>
        </mxCell>
        <mxCell id="X6ToAusCGzRzCE37h3Vb-16" value="" style="endArrow=classic;html=1;exitX=0;exitY=1;exitDx=0;exitDy=0;entryX=1;entryY=0.5;entryDx=0;entryDy=0;" parent="1" source="X6ToAusCGzRzCE37h3Vb-5" target="X6ToAusCGzRzCE37h3Vb-8" edge="1">
          <mxGeometry width="50" height="50" relative="1" as="geometry">
            <mxPoint x="400" y="490" as="sourcePoint" />
            <mxPoint x="450" y="440" as="targetPoint" />
          </mxGeometry>
        </mxCell>
        <mxCell id="X6ToAusCGzRzCE37h3Vb-17" value="" style="endArrow=none;dashed=1;html=1;dashPattern=1 3;strokeWidth=2;entryX=0;entryY=0.5;entryDx=0;entryDy=0;" parent="1" source="X6ToAusCGzRzCE37h3Vb-5" target="X6ToAusCGzRzCE37h3Vb-9" edge="1">
          <mxGeometry width="50" height="50" relative="1" as="geometry">
            <mxPoint x="400" y="490" as="sourcePoint" />
            <mxPoint x="450" y="440" as="targetPoint" />
          </mxGeometry>
        </mxCell>
        <mxCell id="X6ToAusCGzRzCE37h3Vb-18" value="" style="endArrow=none;dashed=1;html=1;dashPattern=1 3;strokeWidth=2;entryX=0;entryY=0.5;entryDx=0;entryDy=0;exitX=1;exitY=1;exitDx=0;exitDy=0;" parent="1" source="X6ToAusCGzRzCE37h3Vb-5" target="X6ToAusCGzRzCE37h3Vb-10" edge="1">
          <mxGeometry width="50" height="50" relative="1" as="geometry">
            <mxPoint x="400" y="490" as="sourcePoint" />
            <mxPoint x="450" y="440" as="targetPoint" />
          </mxGeometry>
        </mxCell>
        <mxCell id="X6ToAusCGzRzCE37h3Vb-19" value="&lt;font style=&quot;font-size: 13px&quot;&gt;&lt;b&gt;Notifications visuels &lt;br&gt;(App Inventor)&lt;/b&gt;&lt;/font&gt;" style="ellipse;whiteSpace=wrap;html=1;" parent="1" vertex="1">
          <mxGeometry x="250" y="590" width="160" height="70" as="geometry" />
        </mxCell>
        <mxCell id="X6ToAusCGzRzCE37h3Vb-20" value="&lt;font style=&quot;font-size: 13px&quot;&gt;&lt;b&gt;Recevoir des sons Audio&lt;br&gt;&lt;/b&gt;&lt;/font&gt;" style="ellipse;whiteSpace=wrap;html=1;" parent="1" vertex="1">
          <mxGeometry x="250" y="670" width="160" height="60" as="geometry" />
        </mxCell>
        <mxCell id="X6ToAusCGzRzCE37h3Vb-21" value="" style="endArrow=none;html=1;entryX=1;entryY=0.75;entryDx=0;entryDy=0;exitX=0;exitY=0.5;exitDx=0;exitDy=0;" parent="1" source="X6ToAusCGzRzCE37h3Vb-19" target="X6ToAusCGzRzCE37h3Vb-8" edge="1">
          <mxGeometry width="50" height="50" relative="1" as="geometry">
            <mxPoint x="400" y="490" as="sourcePoint" />
            <mxPoint x="450" y="440" as="targetPoint" />
          </mxGeometry>
        </mxCell>
        <mxCell id="X6ToAusCGzRzCE37h3Vb-22" value="" style="endArrow=none;html=1;entryX=1;entryY=0.75;entryDx=0;entryDy=0;exitX=0;exitY=0.5;exitDx=0;exitDy=0;" parent="1" source="X6ToAusCGzRzCE37h3Vb-20" target="X6ToAusCGzRzCE37h3Vb-8" edge="1">
          <mxGeometry width="50" height="50" relative="1" as="geometry">
            <mxPoint x="400" y="490" as="sourcePoint" />
            <mxPoint x="450" y="440" as="targetPoint" />
          </mxGeometry>
        </mxCell>
        <mxCell id="X6ToAusCGzRzCE37h3Vb-23" value="&lt;b&gt;&lt;font style=&quot;font-size: 14px&quot;&gt;Sur la route, les plantes, les coauilles, des objets etc...&amp;nbsp;&lt;/font&gt;&lt;/b&gt;" style="whiteSpace=wrap;html=1;aspect=fixed;fillColor=#cdeb8b;strokeColor=#36393d;" parent="1" vertex="1">
          <mxGeometry x="690" y="235" width="140" height="140" as="geometry" />
        </mxCell>
        <mxCell id="X6ToAusCGzRzCE37h3Vb-24" value="" style="endArrow=none;html=1;entryX=0;entryY=0.5;entryDx=0;entryDy=0;exitX=0.5;exitY=0.5;exitDx=0;exitDy=0;exitPerimeter=0;" parent="1" source="X6ToAusCGzRzCE37h3Vb-4" target="X6ToAusCGzRzCE37h3Vb-7" edge="1">
          <mxGeometry width="50" height="50" relative="1" as="geometry">
            <mxPoint x="400" y="490" as="sourcePoint" />
            <mxPoint x="450" y="440" as="targetPoint" />
          </mxGeometry>
        </mxCell>
        <mxCell id="X6ToAusCGzRzCE37h3Vb-25" value="" style="endArrow=none;html=1;entryX=1;entryY=0.5;entryDx=0;entryDy=0;exitX=0;exitY=0.5;exitDx=0;exitDy=0;" parent="1" source="X6ToAusCGzRzCE37h3Vb-23" target="X6ToAusCGzRzCE37h3Vb-7" edge="1">
          <mxGeometry width="50" height="50" relative="1" as="geometry">
            <mxPoint x="400" y="480" as="sourcePoint" />
            <mxPoint x="450" y="430" as="targetPoint" />
          </mxGeometry>
        </mxCell>
        <mxCell id="X6ToAusCGzRzCE37h3Vb-26" value="&lt;font style=&quot;font-size: 13px&quot;&gt;&lt;b&gt;Recevoir la position GPS localisation&lt;br&gt;&lt;/b&gt;&lt;/font&gt;" style="ellipse;whiteSpace=wrap;html=1;" parent="1" vertex="1">
          <mxGeometry x="245" y="740" width="180" height="60" as="geometry" />
        </mxCell>
        <mxCell id="X6ToAusCGzRzCE37h3Vb-27" value="" style="endArrow=none;html=1;entryX=0;entryY=0.5;entryDx=0;entryDy=0;exitX=1;exitY=0.75;exitDx=0;exitDy=0;" parent="1" source="X6ToAusCGzRzCE37h3Vb-8" target="X6ToAusCGzRzCE37h3Vb-26" edge="1">
          <mxGeometry width="50" height="50" relative="1" as="geometry">
            <mxPoint x="160" y="660" as="sourcePoint" />
            <mxPoint x="450" y="420" as="targetPoint" />
          </mxGeometry>
        </mxCell>
      </root>
    </mxGraphModel>
  </diagram>
</mxfile>
